<?xml version="1.0" standalone="no"?>
<!DOCTYPE svg PUBLIC "-//W3C//DTD SVG 20010904//EN"
 "http://www.w3.org/TR/2001/REC-SVG-20010904/DTD/svg10.dtd">
<svg version="1.0" xmlns="http://www.w3.org/2000/svg"
 width="484.000000pt" height="484.000000pt" viewBox="0 0 484.000000 484.000000"
 preserveAspectRatio="xMidYMid meet">
<metadata>
Created by potrace 1.11, written by Peter Selinger 2001-2013
</metadata>
<g transform="translate(0.000000,484.000000) scale(0.100000,-0.100000)"
fill="#000000" stroke="none">
<path d="M1920 4484 c-19 -2 -77 -9 -129 -15 -408 -47 -829 -249 -1144 -548
-518 -492 -744 -1213 -602 -1919 108 -530 433 -1008 892 -1310 251 -165 545
-275 842 -316 146 -21 439 -21 580 -1 692 100 1279 532 1577 1160 28 61 64
145 80 188 15 44 32 80 38 82 6 2 42 10 81 19 38 9 114 37 170 63 154 73 226
70 457 -20 64 -24 66 -25 71 -6 3 10 2 21 -3 24 -20 12 -515 205 -527 205 -7
0 -45 -16 -83 -35 -129 -65 -203 -80 -395 -79 -194 0 -289 15 -575 89 -805
208 -1079 262 -1468 287 -465 30 -830 -59 -1089 -267 -134 -108 -223 -222
-314 -405 l-47 -95 -12 30 c-21 52 12 313 65 521 118 461 381 842 755 1091
223 149 521 257 810 293 109 13 391 13 500 0 432 -53 859 -238 1220 -526 110
-89 308 -287 390 -393 l65 -83 3 42 c4 52 -22 238 -49 345 -52 211 -148 437
-261 620 -222 356 -576 652 -973 812 -241 97 -457 141 -725 147 -91 3 -181 2
-200 0z"/>
<path d="M1980 2899 c-352 -31 -666 -133 -917 -298 -51 -33 -93 -62 -93 -64 0
-2 44 18 98 44 441 219 1073 257 1817 108 209 -41 462 -108 683 -180 161 -53
266 -92 640 -234 l63 -25 -31 43 c-17 23 -44 59 -58 79 -30 41 -133 94 -380
194 -628 255 -1302 378 -1822 333z"/>
</g>
</svg>
